<mxfile host="app.diagrams.net" modified="2021-03-24T02:32:58.356Z" agent="5.0 (Macintosh; Intel Mac OS X 10_15_7) AppleWebKit/537.36 (KHTML, like Gecko) Chrome/89.0.4389.90 Safari/537.36" etag="6GnEoze5mo68hWl2yJ70" version="14.4.9" type="github">
  <diagram name="Page-1" id="74e2e168-ea6b-b213-b513-2b3c1d86103e">
    <mxGraphModel dx="946" dy="518" grid="1" gridSize="10" guides="1" tooltips="1" connect="1" arrows="1" fold="1" page="1" pageScale="1" pageWidth="1100" pageHeight="850" background="#F1FAEE" math="0" shadow="0">
      <root>
        <mxCell id="0" />
        <mxCell id="1" parent="0" />
        <mxCell id="JlCPLaRVTFhM39DYMITW-4" style="edgeStyle=orthogonalEdgeStyle;rounded=0;orthogonalLoop=1;jettySize=auto;html=1;entryX=0.5;entryY=0;entryDx=0;entryDy=0;entryPerimeter=0;strokeColor=#457B9D;fontColor=#1D3557;labelBackgroundColor=#F1FAEE;" edge="1" parent="1" source="JlCPLaRVTFhM39DYMITW-1" target="JlCPLaRVTFhM39DYMITW-3">
          <mxGeometry relative="1" as="geometry" />
        </mxCell>
        <mxCell id="JlCPLaRVTFhM39DYMITW-1" value="empty接口切面" style="strokeWidth=2;html=1;shape=mxgraph.flowchart.terminator;whiteSpace=wrap;fillColor=#A8DADC;strokeColor=#457B9D;fontColor=#1D3557;" vertex="1" parent="1">
          <mxGeometry x="190" y="50" width="100" height="60" as="geometry" />
        </mxCell>
        <mxCell id="JlCPLaRVTFhM39DYMITW-7" style="edgeStyle=orthogonalEdgeStyle;rounded=0;orthogonalLoop=1;jettySize=auto;html=1;entryX=0;entryY=0.5;entryDx=0;entryDy=0;entryPerimeter=0;strokeColor=#457B9D;fontColor=#1D3557;labelBackgroundColor=#F1FAEE;" edge="1" parent="1" source="JlCPLaRVTFhM39DYMITW-3" target="JlCPLaRVTFhM39DYMITW-6">
          <mxGeometry relative="1" as="geometry" />
        </mxCell>
        <mxCell id="JlCPLaRVTFhM39DYMITW-8" value="通过" style="edgeLabel;html=1;align=center;verticalAlign=middle;resizable=0;points=[];fontColor=#1D3557;labelBackgroundColor=#F1FAEE;" vertex="1" connectable="0" parent="JlCPLaRVTFhM39DYMITW-7">
          <mxGeometry x="0.1429" y="2" relative="1" as="geometry">
            <mxPoint as="offset" />
          </mxGeometry>
        </mxCell>
        <mxCell id="JlCPLaRVTFhM39DYMITW-10" style="edgeStyle=orthogonalEdgeStyle;rounded=0;orthogonalLoop=1;jettySize=auto;html=1;entryX=0.5;entryY=0;entryDx=0;entryDy=0;strokeColor=#457B9D;fontColor=#1D3557;labelBackgroundColor=#F1FAEE;" edge="1" parent="1" source="JlCPLaRVTFhM39DYMITW-3" target="JlCPLaRVTFhM39DYMITW-9">
          <mxGeometry relative="1" as="geometry" />
        </mxCell>
        <mxCell id="JlCPLaRVTFhM39DYMITW-11" value="不通过" style="edgeLabel;html=1;align=center;verticalAlign=middle;resizable=0;points=[];fontColor=#1D3557;labelBackgroundColor=#F1FAEE;" vertex="1" connectable="0" parent="JlCPLaRVTFhM39DYMITW-10">
          <mxGeometry x="-0.32" y="1" relative="1" as="geometry">
            <mxPoint as="offset" />
          </mxGeometry>
        </mxCell>
        <mxCell id="JlCPLaRVTFhM39DYMITW-3" value="checkingData校验" style="strokeWidth=2;html=1;shape=mxgraph.flowchart.decision;whiteSpace=wrap;fillColor=#A8DADC;strokeColor=#457B9D;fontColor=#1D3557;" vertex="1" parent="1">
          <mxGeometry x="190" y="170" width="100" height="100" as="geometry" />
        </mxCell>
        <mxCell id="JlCPLaRVTFhM39DYMITW-6" value="校验通过" style="strokeWidth=2;html=1;shape=mxgraph.flowchart.terminator;whiteSpace=wrap;fillColor=#A8DADC;strokeColor=#457B9D;fontColor=#1D3557;" vertex="1" parent="1">
          <mxGeometry x="360" y="190" width="100" height="60" as="geometry" />
        </mxCell>
        <mxCell id="JlCPLaRVTFhM39DYMITW-13" style="edgeStyle=orthogonalEdgeStyle;rounded=0;orthogonalLoop=1;jettySize=auto;html=1;entryX=0.5;entryY=0;entryDx=0;entryDy=0;entryPerimeter=0;strokeColor=#457B9D;fontColor=#1D3557;labelBackgroundColor=#F1FAEE;" edge="1" parent="1" source="JlCPLaRVTFhM39DYMITW-9" target="JlCPLaRVTFhM39DYMITW-12">
          <mxGeometry relative="1" as="geometry" />
        </mxCell>
        <mxCell id="JlCPLaRVTFhM39DYMITW-9" value="redis数据累加,并获取当前异常次数" style="rounded=1;whiteSpace=wrap;html=1;fillColor=#A8DADC;strokeColor=#457B9D;fontColor=#1D3557;" vertex="1" parent="1">
          <mxGeometry x="180" y="320" width="120" height="60" as="geometry" />
        </mxCell>
        <mxCell id="JlCPLaRVTFhM39DYMITW-15" style="edgeStyle=orthogonalEdgeStyle;rounded=0;orthogonalLoop=1;jettySize=auto;html=1;entryX=0;entryY=0.5;entryDx=0;entryDy=0;entryPerimeter=0;strokeColor=#457B9D;fontColor=#1D3557;labelBackgroundColor=#F1FAEE;" edge="1" parent="1" source="JlCPLaRVTFhM39DYMITW-12" target="JlCPLaRVTFhM39DYMITW-14">
          <mxGeometry relative="1" as="geometry" />
        </mxCell>
        <mxCell id="JlCPLaRVTFhM39DYMITW-17" style="edgeStyle=orthogonalEdgeStyle;rounded=0;orthogonalLoop=1;jettySize=auto;html=1;strokeColor=#457B9D;fontColor=#1D3557;labelBackgroundColor=#F1FAEE;" edge="1" parent="1" source="JlCPLaRVTFhM39DYMITW-12" target="JlCPLaRVTFhM39DYMITW-16">
          <mxGeometry relative="1" as="geometry" />
        </mxCell>
        <mxCell id="JlCPLaRVTFhM39DYMITW-12" value="是否超过异常配置次数" style="strokeWidth=2;html=1;shape=mxgraph.flowchart.decision;whiteSpace=wrap;fillColor=#A8DADC;strokeColor=#457B9D;fontColor=#1D3557;" vertex="1" parent="1">
          <mxGeometry x="190" y="440" width="100" height="100" as="geometry" />
        </mxCell>
        <mxCell id="JlCPLaRVTFhM39DYMITW-14" value="频次过滤器终止" style="strokeWidth=2;html=1;shape=mxgraph.flowchart.terminator;whiteSpace=wrap;fillColor=#A8DADC;strokeColor=#457B9D;fontColor=#1D3557;" vertex="1" parent="1">
          <mxGeometry x="370" y="460" width="100" height="60" as="geometry" />
        </mxCell>
        <mxCell id="JlCPLaRVTFhM39DYMITW-19" style="edgeStyle=orthogonalEdgeStyle;rounded=0;orthogonalLoop=1;jettySize=auto;html=1;entryX=0.5;entryY=0;entryDx=0;entryDy=0;entryPerimeter=0;strokeColor=#457B9D;fontColor=#1D3557;labelBackgroundColor=#F1FAEE;" edge="1" parent="1" source="JlCPLaRVTFhM39DYMITW-16" target="JlCPLaRVTFhM39DYMITW-18">
          <mxGeometry relative="1" as="geometry" />
        </mxCell>
        <mxCell id="JlCPLaRVTFhM39DYMITW-16" value="Alarm报警调用" style="rounded=1;whiteSpace=wrap;html=1;fillColor=#A8DADC;strokeColor=#457B9D;fontColor=#1D3557;" vertex="1" parent="1">
          <mxGeometry x="180" y="610" width="120" height="60" as="geometry" />
        </mxCell>
        <mxCell id="JlCPLaRVTFhM39DYMITW-18" value="结束" style="strokeWidth=2;html=1;shape=mxgraph.flowchart.terminator;whiteSpace=wrap;fillColor=#A8DADC;strokeColor=#457B9D;fontColor=#1D3557;" vertex="1" parent="1">
          <mxGeometry x="190" y="730" width="100" height="60" as="geometry" />
        </mxCell>
      </root>
    </mxGraphModel>
  </diagram>
</mxfile>
